<svg width="89" height="34" viewBox="0 0 89 34" fill="none" xmlns="http://www.w3.org/2000/svg">
<path d="M1.968 25V7.48H5.904V25H1.968ZM5.424 17.944V14.68H12.192V17.944H5.424ZM5.424 10.744V7.48H12.48V10.744H5.424ZM15.6651 25V11.848H19.5051V25H15.6651ZM13.9131 14.68V11.848H19.5051V14.68H13.9131ZM17.1531 10.552C16.4331 10.552 15.8971 10.368 15.5451 10C15.2091 9.616 15.0411 9.136 15.0411 8.56C15.0411 7.968 15.2091 7.488 15.5451 7.12C15.8971 6.736 16.4331 6.544 17.1531 6.544C17.8731 6.544 18.4011 6.736 18.7371 7.12C19.0891 7.488 19.2651 7.968 19.2651 8.56C19.2651 9.136 19.0891 9.616 18.7371 10C18.4011 10.368 17.8731 10.552 17.1531 10.552ZM29.0327 25.168C27.7047 25.168 26.6327 25.008 25.8167 24.688C25.0007 24.352 24.4007 23.8 24.0167 23.032C23.6487 22.248 23.4647 21.192 23.4647 19.864V8.296H27.0407V20.008C27.0407 20.632 27.2007 21.112 27.5207 21.448C27.8567 21.768 28.3287 21.928 28.9367 21.928H30.8807V25.168H29.0327ZM21.4727 14.656V11.848H30.8807V14.656H21.4727ZM39.4389 25.168C38.1109 25.168 37.0389 25.008 36.2229 24.688C35.4069 24.352 34.8069 23.8 34.4229 23.032C34.0549 22.248 33.8709 21.192 33.8709 19.864V8.296H37.4469V20.008C37.4469 20.632 37.6069 21.112 37.9269 21.448C38.2629 21.768 38.7349 21.928 39.3429 21.928H41.2869V25.168H39.4389ZM31.8789 14.656V11.848H41.2869V14.656H31.8789ZM44.4932 25V11.848H48.3332V25H44.4932ZM42.7412 14.68V11.848H48.3332V14.68H42.7412ZM45.9812 10.552C45.2612 10.552 44.7252 10.368 44.3732 10C44.0372 9.616 43.8692 9.136 43.8692 8.56C43.8692 7.968 44.0372 7.488 44.3732 7.12C44.7252 6.736 45.2612 6.544 45.9812 6.544C46.7012 6.544 47.2292 6.736 47.5652 7.12C47.9172 7.488 48.0932 7.968 48.0932 8.56C48.0932 9.136 47.9172 9.616 47.5652 10C47.2292 10.368 46.7012 10.552 45.9812 10.552ZM51.8848 25V11.848H54.9328V17.488H54.7168C54.7168 16.144 54.8848 15.024 55.2208 14.128C55.5728 13.232 56.1008 12.56 56.8048 12.112C57.5088 11.664 58.3648 11.44 59.3728 11.44H59.5408C61.0768 11.44 62.2448 11.944 63.0448 12.952C63.8608 13.944 64.2688 15.456 64.2688 17.488V25H60.4288V17.272C60.4288 16.568 60.2208 15.992 59.8048 15.544C59.3888 15.096 58.8288 14.872 58.1248 14.872C57.4048 14.872 56.8208 15.104 56.3728 15.568C55.9408 16.016 55.7248 16.608 55.7248 17.344V25H51.8848ZM72.7251 30.232C72.0851 30.232 71.4291 30.208 70.7571 30.16C70.0851 30.112 69.4691 30.048 68.9091 29.968V26.728C69.4691 26.808 70.0851 26.872 70.7571 26.92C71.4451 26.984 72.0691 27.016 72.6291 27.016C73.6691 27.016 74.5091 26.896 75.1491 26.656C75.8051 26.416 76.2851 26.048 76.5891 25.552C76.8931 25.072 77.0451 24.448 77.0451 23.68V21.064L77.7411 19.528C77.7091 20.696 77.4771 21.696 77.0451 22.528C76.6291 23.36 76.0451 24 75.2931 24.448C74.5411 24.88 73.6451 25.096 72.6051 25.096C71.7091 25.096 70.8931 24.936 70.1571 24.616C69.4371 24.28 68.8211 23.816 68.3091 23.224C67.7971 22.632 67.4051 21.944 67.1331 21.16C66.8611 20.36 66.7251 19.496 66.7251 18.568V18.016C66.7251 17.088 66.8691 16.224 67.1571 15.424C67.4451 14.624 67.8611 13.928 68.4051 13.336C68.9491 12.744 69.5971 12.288 70.3491 11.968C71.1011 11.632 71.9331 11.464 72.8451 11.464C73.9011 11.464 74.8131 11.696 75.5811 12.16C76.3651 12.624 76.9811 13.304 77.4291 14.2C77.8771 15.096 78.1171 16.176 78.1491 17.44L77.6211 17.584V11.848H80.6691V23.44C80.6691 25.056 80.3811 26.36 79.8051 27.352C79.2291 28.344 78.3491 29.072 77.1651 29.536C75.9971 30 74.5171 30.232 72.7251 30.232ZM73.8051 21.856C74.3971 21.856 74.9331 21.728 75.4131 21.472C75.8931 21.2 76.2691 20.816 76.5411 20.32C76.8291 19.824 76.9731 19.224 76.9731 18.52V17.824C76.9731 17.136 76.8211 16.56 76.5171 16.096C76.2291 15.616 75.8451 15.256 75.3651 15.016C74.8851 14.76 74.3731 14.632 73.8291 14.632C73.1891 14.632 72.6211 14.784 72.1251 15.088C71.6291 15.392 71.2451 15.816 70.9731 16.36C70.7011 16.904 70.5651 17.544 70.5651 18.28C70.5651 19.032 70.7011 19.68 70.9731 20.224C71.2611 20.752 71.6451 21.16 72.1251 21.448C72.6211 21.72 73.1811 21.856 73.8051 21.856Z" fill="white"/>
<path d="M83.3942 25V20.704H87.6182V25H83.3942Z" fill="#FF5045"/>
</svg>
